<?xml version="1.0" standalone="no"?>
<!DOCTYPE svg PUBLIC "-//W3C//DTD SVG 20010904//EN"
 "http://www.w3.org/TR/2001/REC-SVG-20010904/DTD/svg10.dtd">
<svg version="1.0" xmlns="http://www.w3.org/2000/svg"
 width="512.000000pt" height="512.000000pt" viewBox="0 0 512.000000 512.000000"
 preserveAspectRatio="xMidYMid meet">

<g transform="translate(0.000000,512.000000) scale(0.100000,-0.100000)"
fill="#000000" stroke="none">
<path d="M2430 5114 c-221 -27 -438 -112 -624 -245 -106 -76 -121 -95 -112
-147 5 -36 2 -43 -49 -103 -30 -35 -55 -68 -55 -73 0 -5 -14 -6 -30 -2 -57 11
-77 -9 -141 -138 -65 -135 -103 -256 -119 -379 -9 -70 -27 -460 -33 -692 -2
-82 16 -128 76 -188 47 -47 111 -77 180 -84 l52 -5 18 -90 c30 -153 97 -294
206 -431 56 -71 182 -182 242 -212 26 -14 29 -20 29 -68 l0 -53 -87 -70 c-49
-39 -99 -78 -113 -87 -14 -9 -155 -61 -315 -117 -159 -55 -318 -114 -353 -130
-112 -54 -201 -155 -242 -276 -35 -101 -241 -1160 -242 -1240 -1 -121 53 -209
156 -256 50 -23 57 -23 463 -26 l413 -3 25 25 c32 32 33 75 2 104 -21 20 -34
22 -125 22 l-102 0 0 424 c0 399 -1 425 -19 447 -26 32 -86 32 -112 0 -18 -22
-19 -48 -19 -447 l0 -424 -192 0 c-233 1 -273 7 -310 49 -22 25 -28 41 -28 79
0 74 226 1188 251 1236 26 52 83 111 134 141 22 13 99 43 170 68 72 25 201 70
287 101 l158 55 134 -192 c74 -106 145 -202 158 -215 28 -25 77 -42 125 -42
24 0 37 -7 53 -30 l22 -30 -120 -398 c-66 -218 -122 -408 -125 -422 -15 -61
11 -106 144 -256 l129 -144 -169 0 c-155 0 -170 -2 -195 -21 -34 -27 -35 -71
-1 -105 l25 -24 1072 2 1073 3 51 23 c96 44 154 132 156 240 3 84 -110 657
-134 682 -40 43 -128 13 -128 -43 0 -13 25 -149 55 -302 57 -287 63 -346 43
-390 -24 -54 -53 -60 -295 -63 l-223 -3 0 419 c0 231 -3 428 -6 437 -10 24
-60 46 -89 39 -55 -14 -55 -13 -55 -471 l0 -423 -421 0 -421 0 120 133 c66 72
127 146 136 164 30 60 21 106 -105 521 l-121 397 18 32 c14 26 23 33 48 33 56
0 101 19 137 57 20 21 91 118 158 216 68 97 124 177 126 177 2 0 117 -40 257
-89 139 -49 264 -92 278 -96 88 -26 183 -104 220 -181 11 -23 33 -100 49 -173
17 -80 35 -139 46 -151 39 -44 125 -9 125 51 0 58 -54 278 -82 339 -38 79
-131 176 -206 214 -28 14 -172 68 -319 120 -380 133 -359 123 -467 216 -96 83
-96 83 -96 129 1 46 1 46 68 91 204 136 362 377 410 620 17 90 17 90 48 90 91
0 191 58 246 142 31 49 33 58 31 128 -1 41 -6 253 -11 470 -10 386 -15 452
-48 555 -41 127 -139 266 -222 316 -20 13 -77 61 -127 109 -230 220 -494 326
-830 334 -82 3 -166 2 -185 0z m692 -1114 c56 -70 137 -127 209 -147 l56 -15
6 -207 c3 -113 2 -300 -2 -416 -7 -200 -9 -214 -40 -305 -55 -163 -137 -285
-257 -384 -163 -134 -389 -208 -587 -192 -99 8 -178 46 -284 139 -132 113
-218 241 -272 402 -44 133 -51 213 -51 570 0 264 2 324 14 328 7 3 49 1 92 -5
118 -15 401 -3 504 21 175 40 352 120 483 217 40 29 75 52 78 51 3 -1 26 -27
51 -57z m-70 -1992 l57 -49 -127 -182 c-70 -100 -134 -183 -143 -185 -9 -2
-48 32 -94 83 l-78 87 153 153 c85 85 158 151 164 148 6 -4 37 -28 68 -55z
m-754 -98 l151 -145 -83 -89 c-54 -59 -87 -88 -97 -84 -12 5 -259 350 -259
363 0 7 124 105 131 103 3 -2 74 -68 157 -148z"/>
</g>
</svg>
